<svg xmlns="http://www.w3.org/2000/svg" width="140" height="203" fill="none"><path fill="#D7D8DB" fill-rule="evenodd" d="M71.534 188.331c-19.634 0-35.574 3.187-35.574 7.113 0 3.925 15.94 7.112 35.574 7.112 19.635 0 35.576-3.187 35.576-7.112 0-3.926-15.94-7.113-35.576-7.113z" clip-rule="evenodd"/><path fill="url(#paint0_linear)" fill-rule="evenodd" d="M31.962 52.7l.375-.264c13.306-9.298 33.704-13.581 37.077-27.261C71.1 18.335 68.892 8.853 62.45 0c18.956 6.715 29.938 16.427 32.672 24.381 4.44 12.912-1.445 27.353 4.33 28.648 5.599 1.256 9.515-8.393 8.448-17.337 18.35 17.721 30.244 37.808 31.198 70.507.108 1.578.164 3.17.164 4.775 0 38.245-31.201 69.294-69.631 69.294S0 149.219 0 110.974a68.736 68.736 0 014.891-25.543 62.219 62.219 0 019.457-16.572A69.965 69.965 0 0131.962 52.7z" clip-rule="evenodd"/><path fill="#663000" fill-rule="evenodd" d="M24.047 114.521c0-8.077 3.553-27.352 17.121-26.056 11.88 1.134 10.853 22.069 10.522 26.737-.177 2.503-4.642 3.258-4.681.739-.039-2.493-.111-20.22-6.504-20.9-10.337-1.103-12.463 16.715-12.691 19.536-.229 2.82-3.767 2.092-3.767-.056zm58.826.061c-.733-5.084.594-25.892 14.652-26.39 13.088-.463 16.028 19.625 16.332 25.272.228 4.227-4.875 6.163-5.47 2.153-.564-3.789-2.624-21.625-11.316-20.36-6.359.924-9.325 9.896-9.4 19.255-.027 3.535-4.097 4.938-4.798.07z" clip-rule="evenodd"/><path fill="#B55500" fill-rule="evenodd" d="M34.142 81.523c9.721-1.512 16.195-4.987 19.776-11.811 1.37-2.608 5.324-1.474 4.337 1.694-3.248 10.431-14.53 14.044-23.451 13.26-2.818-.247-2.65-2.833-.662-3.143zm45.851-9.687c3.684 6.264 13.167 7.086 18.113 7.306 4.946.22 3.348 3.437.196 4.564-2.999 1.073-17.395 1.778-22.68-8.772-2.17-4.332 2.914-5.577 4.371-3.098z" clip-rule="evenodd"/><path fill="#FF7800" fill-rule="evenodd" d="M21.056 121.252c7.855.921 13.761 5.644 13.181 10.542-.579 4.897-7.426 8.126-15.28 7.206-7.855-.921-13.762-5.644-13.182-10.541.58-4.898 7.427-8.127 15.281-7.207zm95.573-.612c7.518-1.958 14.668.435 15.958 5.34 1.291 4.905-3.765 10.477-11.283 12.435-7.518 1.959-14.669-.434-15.959-5.339-1.29-4.906 3.766-10.478 11.284-12.436z" clip-rule="evenodd"/><path stroke="#B55500" stroke-linecap="round" stroke-linejoin="round" stroke-width="2.245" d="M19.25 135.981l14.697-8.843m70.15 5.743l14.261-10.378m-6.911 13.248l18.63-11.799M10.854 135.807l18.74-12.808m-11.582-.343l-9.952 7.23m115.439 4.475l8.172-6.693"/><path fill="#F2F2F2" fill-rule="evenodd" d="M39.778 137.456c5.529-3.663 11.324 2.043 25.794 3.672s21.517-8.513 24.449-11.021c5.731-4.903 13.959 5.962 8.91 15.584-5.048 9.621-19.49 16.473-32.11 15.952-12.619-.521-22.75-5.436-27.293-10.737-4.542-5.301-3.223-11.149.25-13.45z" clip-rule="evenodd"/><path stroke="#6E819C" stroke-linecap="round" stroke-linejoin="round" stroke-width="2.026" d="M57.893 140.043l-4.736 18.123m24.374-18.519l5.492 18.469"/><path stroke="#7C3A00" stroke-linecap="round" stroke-linejoin="round" stroke-width="2.684" d="M39.778 137.456c5.529-3.663 11.325 2.043 25.794 3.672 14.47 1.629 20.128-8.104 23.291-10.315 7.066-4.938 15.117 5.256 10.069 14.878-5.049 9.621-19.49 16.473-32.11 15.952-12.62-.521-22.751-5.436-27.293-10.737-4.543-5.301-3.223-11.149.25-13.45z" clip-rule="evenodd"/><defs><linearGradient id="paint0_linear" x1="21.522" x2=".291" y1="-26.018" y2="117.263" gradientUnits="userSpaceOnUse"><stop stop-color="#FF9500"/><stop offset="1" stop-color="#FFC500"/></linearGradient></defs></svg>